ffmpeg started on 2025-07-16 at 15:58:26
Report written to "D:\Convert\FFMetrics\reports\ssim_report-6.txt"
Log level: 32
Command line:
ffmpeg -hide_banner -nostdin -i "G:\\\xc0\xed\xe8\xec\xe5\\Shiza\\\xcb\xe5\xe3\xe5\xed\xe4\xe0 \xee \xc3\xf0\xe0\xed\xea\xf0\xe5\xf1\xf2\xe5\\[SHIZA Project] Grancrest Senki TV [05] [nDrOiDze & Lianna]_HEVC.mkv" -i "G:\\\xc0\xed\xe8\xec\xe5\\Shiza\\\xcb\xe5\xe3\xe5\xed\xe4\xe0 \xee \xc3\xf0\xe0\xed\xea\xf0\xe5\xf1\xf2\xe5\\[SHIZA Project] Grancrest Senki TV [05] [nDrOiDze & Lianna].mkv" -lavfi "[0:v]settb=AVTB,setpts=PTS-STARTPTS,format=pix_fmts=yuv420p10,fps=24000/1001,scale=1280:720:flags=bicubic[main];[1:v]settb=AVTB,setpts=PTS-STARTPTS,format=pix_fmts=yuv420p,fps=24000/1001,scale=1280:720:flags=bicubic[ref];[main][ref]ssim=eof_action=endall:stats_file='D\\:/Convert/FFMetrics/logs/ssim_logfile-6.txt'" -f null -
Input #0, matroska,webm, from 'G:\Аниме\Shiza\Легенда о Гранкресте\[SHIZA Project] Grancrest Senki TV [05] [nDrOiDze & Lianna]_HEVC.mkv':
  Metadata:
    ENCODER         : Lavf61.7.100
  Duration: 00:23:41.23, start: -0.021000, bitrate: 755 kb/s
  Stream #0:0(jpn): Video: hevc (Main 10), yuv420p10le(tv, bt709, progressive), 1280x720 [SAR 1:1 DAR 16:9], 23.98 fps, 23.98 tbr, 1k tbn (default)
      Metadata:
        title           : [SHIZA Project] Grancrest Senki TV [WEBRip]
        ENCODER         : Lavc61.19.100 libx265
        BPS             : 557796
        DURATION        : 00:23:40.085708333
        NUMBER_OF_FRAMES: 34048
        NUMBER_OF_BYTES : 99014802
        _STATISTICS_WRITING_APP: mkvpropedit v66.0.0 ('Josie') 64-bit
        _STATISTICS_WRITING_DATE_UTC: 2025-07-14 08:29:54
        _STATISTICS_TAGS: BPS DURATION NUMBER_OF_FRAMES NUMBER_OF_BYTES
  Stream #0:1(rus): Audio: aac (LC), 48000 Hz, stereo, fltp (default)
      Metadata:
        title           : nDrOiDze & Lianna
        ENCODER         : Lavc61.19.100 aac
        BPS             : 194076
        DURATION        : 00:23:41.205000000
        NUMBER_OF_FRAMES: 66620
        NUMBER_OF_BYTES : 34477792
        _STATISTICS_WRITING_APP: mkvpropedit v66.0.0 ('Josie') 64-bit
        _STATISTICS_WRITING_DATE_UTC: 2025-07-14 08:29:54
        _STATISTICS_TAGS: BPS DURATION NUMBER_OF_FRAMES NUMBER_OF_BYTES
Input #1, matroska,webm, from 'G:\Аниме\Shiza\Легенда о Гранкресте\[SHIZA Project] Grancrest Senki TV [05] [nDrOiDze & Lianna].mkv':
  Metadata:
    encoder         : libebml v1.3.4 + libmatroska v1.4.5
    creation_time   : 2018-02-04T22:20:42.000000Z
  Duration: 00:23:41.21, start: 0.000000, bitrate: 2744 kb/s
  Stream #1:0(jpn): Video: h264 (High), yuv420p(progressive), 1280x720 [SAR 1:1 DAR 16:9], 23.98 fps, 23.98 tbr, 1k tbn (default)
      Metadata:
        title           : [SHIZA Project] Grancrest Senki TV [WEBRip]
        BPS             : 2454002
        BPS-eng         : 2454002
        DURATION        : 00:23:40.087000000
        DURATION-eng    : 00:23:40.087000000
        NUMBER_OF_FRAMES: 34048
        NUMBER_OF_FRAMES-eng: 34048
        NUMBER_OF_BYTES : 435612063
        NUMBER_OF_BYTES-eng: 435612063
        _STATISTICS_WRITING_APP: mkvmerge v10.0.0 ('To Drown In You') 64bit
        _STATISTICS_WRITING_APP-eng: mkvmerge v10.0.0 ('To Drown In You') 64bit
        _STATISTICS_WRITING_DATE_UTC: 2018-02-04 22:20:42
        _STATISTICS_WRITING_DATE_UTC-eng: 2018-02-04 22:20:42
        _STATISTICS_TAGS: BPS DURATION NUMBER_OF_FRAMES NUMBER_OF_BYTES
        _STATISTICS_TAGS-eng: BPS DURATION NUMBER_OF_FRAMES NUMBER_OF_BYTES
  Stream #1:1(rus): Audio: aac (LC), 48000 Hz, stereo, fltp (default)
      Metadata:
        title           : nDrOiDze & Lianna
        BPS             : 290130
        BPS-eng         : 290130
        DURATION        : 00:23:41.205000000
        DURATION-eng    : 00:23:41.205000000
        NUMBER_OF_FRAMES: 66619
        NUMBER_OF_FRAMES-eng: 66619
        NUMBER_OF_BYTES : 51541798
        NUMBER_OF_BYTES-eng: 51541798
        _STATISTICS_WRITING_APP: mkvmerge v10.0.0 ('To Drown In You') 64bit
        _STATISTICS_WRITING_APP-eng: mkvmerge v10.0.0 ('To Drown In You') 64bit
        _STATISTICS_WRITING_DATE_UTC: 2018-02-04 22:20:42
        _STATISTICS_WRITING_DATE_UTC-eng: 2018-02-04 22:20:42
        _STATISTICS_TAGS: BPS DURATION NUMBER_OF_FRAMES NUMBER_OF_BYTES
        _STATISTICS_TAGS-eng: BPS DURATION NUMBER_OF_FRAMES NUMBER_OF_BYTES
Stream mapping:
  Stream #0:0 (hevc) -> settb:default
  Stream #1:0 (h264) -> settb:default
  ssim:default -> Stream #0:0 (wrapped_avframe)
  Stream #0:1 -> #0:1 (aac (native) -> pcm_s16le (native))
[swscaler @ 00000173741ed3c0] No accelerated colorspace conversion found from yuv420p to bgr48le.
[swscaler @ 00000173742dc080] No accelerated colorspace conversion found from yuv420p to bgr48le.
[swscaler @ 0000017374435b40] No accelerated colorspace conversion found from yuv420p to bgr48le.
[swscaler @ 0000017374547040] No accelerated colorspace conversion found from yuv420p to bgr48le.
[swscaler @ 00000173746d7d00] No accelerated colorspace conversion found from yuv420p to bgr48le.
[swscaler @ 00000173747d3d80] No accelerated colorspace conversion found from yuv420p to bgr48le.
[swscaler @ 00000173749d6b00] No accelerated colorspace conversion found from yuv420p to bgr48le.
[swscaler @ 0000017374a7db40] No accelerated colorspace conversion found from yuv420p to bgr48le.
[swscaler @ 0000017374b1f040] No accelerated colorspace conversion found from yuv420p to bgr48le.
[swscaler @ 0000017374bc1040] No accelerated colorspace conversion found from yuv420p to bgr48le.
[swscaler @ 0000017374c1f040] No accelerated colorspace conversion found from yuv420p to bgr48le.
[swscaler @ 0000017374c95040] No accelerated colorspace conversion found from yuv420p to bgr48le.
[swscaler @ 0000017374d02040] No accelerated colorspace conversion found from yuv420p to bgr48le.
[swscaler @ 0000017374d7d040] No accelerated colorspace conversion found from yuv420p to bgr48le.
[swscaler @ 0000017374de9040] No accelerated colorspace conversion found from yuv420p to bgr48le.
[swscaler @ 0000017374e0c900] No accelerated colorspace conversion found from yuv420p to bgr48le.
Output #0, null, to 'pipe:':
  Metadata:
    encoder         : Lavf61.7.100
  Stream #0:0: Video: wrapped_avframe, yuv420p10le(tv, bt709, progressive), 1280x720 [SAR 1:1 DAR 16:9], q=2-31, 200 kb/s, 23.98 fps, 23.98 tbn
      Metadata:
        encoder         : Lavc61.19.100 wrapped_avframe
  Stream #0:1(rus): Audio: pcm_s16le, 48000 Hz, stereo, s16, 1536 kb/s (default)
      Metadata:
        title           : nDrOiDze & Lianna
        _STATISTICS_TAGS: BPS DURATION NUMBER_OF_FRAMES NUMBER_OF_BYTES
        BPS             : 194076
        DURATION        : 00:23:41.205000000
        NUMBER_OF_FRAMES: 66620
        NUMBER_OF_BYTES : 34477792
        _STATISTICS_WRITING_APP: mkvpropedit v66.0.0 ('Josie') 64-bit
        _STATISTICS_WRITING_DATE_UTC: 2025-07-14 08:29:54
        encoder         : Lavc61.19.100 pcm_s16le
frame=   78 fps=0.0 q=-0.0 size=N/A time=00:00:03.25 bitrate=N/A speed= 6.3x    frame=  172 fps=166 q=-0.0 size=N/A time=00:00:07.17 bitrate=N/A speed= 6.9x    frame=  270 fps=173 q=-0.0 size=N/A time=00:00:11.26 bitrate=N/A speed=7.21x    frame=  365 fps=176 q=-0.0 size=N/A time=00:00:15.22 bitrate=N/A speed=7.36x    frame=  461 fps=178 q=-0.0 size=N/A time=00:00:19.22 bitrate=N/A speed=7.42x    frame=  552 fps=178 q=-0.0 size=N/A time=00:00:23.02 bitrate=N/A speed=7.43x    frame=  649 fps=179 q=-0.0 size=N/A time=00:00:27.06 bitrate=N/A speed=7.47x    frame=  744 fps=180 q=-0.0 size=N/A time=00:00:31.03 bitrate=N/A speed=7.51x    frame=  843 fps=181 q=-0.0 size=N/A time=00:00:35.16 bitrate=N/A speed=7.56x    frame=  930 fps=180 q=-0.0 size=N/A time=00:00:38.78 bitrate=N/A speed=7.52x    frame= 1032 fps=182 q=-0.0 size=N/A time=00:00:43.04 bitrate=N/A speed=7.58x    frame= 1128 fps=182 q=-0.0 size=N/A time=00:00:47.04 bitrate=N/A speed= 7.6x    frame= 1228 fps=183 q=-0.0 size=N/A time=00:00:51.21 bitrate=N/A speed=7.63x    frame= 1323 fps=183 q=-0.0 size=N/A time=00:00:55.18 bitrate=N/A speed=7.64x    frame= 1420 fps=183 q=-0.0 size=N/A time=00:00:59.22 bitrate=N/A speed=7.65x    frame= 1505 fps=182 q=-0.0 size=N/A time=00:01:02.77 bitrate=N/A speed=7.61x    frame= 1610 fps=184 q=-0.0 size=N/A time=00:01:07.15 bitrate=N/A speed=7.66x    frame= 1701 fps=183 q=-0.0 size=N/A time=00:01:10.94 bitrate=N/A speed=7.64x    frame= 1799 fps=183 q=-0.0 size=N/A time=00:01:15.03 bitrate=N/A speed=7.65x    frame= 1894 fps=183 q=-0.0 size=N/A time=00:01:18.99 bitrate=N/A speed=7.65x    frame= 1976 fps=182 q=-0.0 size=N/A time=00:01:22.41 bitrate=N/A speed=7.61x    frame= 2086 fps=184 q=-0.0 size=N/A time=00:01:27.00 bitrate=N/A speed=7.66x    frame= 2185 fps=184 q=-0.0 size=N/A time=00:01:31.13 bitrate=N/A speed=7.68x    frame= 2280 fps=184 q=-0.0 size=N/A time=00:01:35.09 bitrate=N/A speed=7.68x    frame= 2374 fps=184 q=-0.0 size=N/A time=00:01:39.01 bitrate=N/A speed=7.68x    frame= 2464 fps=184 q=-0.0 size=N/A time=00:01:42.76 bitrate=N/A speed=7.66x    frame= 2561 fps=184 q=-0.0 size=N/A time=00:01:46.81 bitrate=N/A speed=7.66x    frame= 2654 fps=184 q=-0.0 size=N/A time=00:01:50.69 bitrate=N/A speed=7.66x    frame= 2750 fps=184 q=-0.0 size=N/A time=00:01:54.69 bitrate=N/A speed=7.67x    frame= 2847 fps=184 q=-0.0 size=N/A time=00:01:58.74 bitrate=N/A speed=7.67x    frame= 2941 fps=184 q=-0.0 size=N/A time=00:02:02.66 bitrate=N/A speed=7.67x    frame= 3044 fps=184 q=-0.0 size=N/A time=00:02:06.96 bitrate=N/A speed=7.69x    frame= 3143 fps=185 q=-0.0 size=N/A time=00:02:11.08 bitrate=N/A speed= 7.7x    frame= 3238 fps=185 q=-0.0 size=N/A time=00:02:15.05 bitrate=N/A speed= 7.7x    frame= 3334 fps=185 q=-0.0 size=N/A time=00:02:19.05 bitrate=N/A speed= 7.7x    frame= 3422 fps=184 q=-0.0 size=N/A time=00:02:22.72 bitrate=N/A speed=7.69x    frame= 3523 fps=185 q=-0.0 size=N/A time=00:02:26.93 bitrate=N/A speed= 7.7x    frame= 3611 fps=184 q=-0.0 size=N/A time=00:02:30.60 bitrate=N/A speed=7.68x    frame= 3701 fps=184 q=-0.0 size=N/A time=00:02:34.36 bitrate=N/A speed=7.67x    frame= 3807 fps=185 q=-0.0 size=N/A time=00:02:38.78 bitrate=N/A speed= 7.7x    frame= 3897 fps=184 q=-0.0 size=N/A time=00:02:42.53 bitrate=N/A speed=7.69x    frame= 4000 fps=185 q=-0.0 size=N/A time=00:02:46.83 bitrate=N/A speed= 7.7x    frame= 4098 fps=185 q=-0.0 size=N/A time=00:02:50.92 bitrate=N/A speed=7.71x    frame= 4193 fps=185 q=-0.0 size=N/A time=00:02:54.88 bitrate=N/A speed= 7.7x    frame= 4292 fps=185 q=-0.0 size=N/A time=00:02:59.01 bitrate=N/A speed=7.71x    frame= 4374 fps=184 q=-0.0 size=N/A time=00:03:02.43 bitrate=N/A speed=7.69x    frame= 4483 fps=185 q=-0.0 size=N/A time=00:03:06.97 bitrate=N/A speed=7.71x    frame= 4571 fps=185 q=-0.0 size=N/A time=00:03:10.64 bitrate=N/A speed= 7.7x    frame= 4661 fps=184 q=-0.0 size=N/A time=00:03:14.40 bitrate=N/A speed=7.69x    frame= 4771 fps=185 q=-0.0 size=N/A time=00:03:18.99 bitrate=N/A speed=7.72x    frame= 4868 fps=185 q=-0.0 size=N/A time=00:03:23.03 bitrate=N/A speed=7.72x    frame= 4964 fps=185 q=-0.0 size=N/A time=00:03:27.04 bitrate=N/A speed=7.72x    frame= 5059 fps=185 q=-0.0 size=N/A time=00:03:31.00 bitrate=N/A speed=7.72x    frame= 5153 fps=185 q=-0.0 size=N/A time=00:03:34.92 bitrate=N/A speed=7.72x    frame= 5248 fps=185 q=-0.0 size=N/A time=00:03:38.88 bitrate=N/A speed=7.71x    frame= 5342 fps=185 q=-0.0 size=N/A time=00:03:42.80 bitrate=N/A speed=7.71x    frame= 5439 fps=185 q=-0.0 size=N/A time=00:03:46.85 bitrate=N/A speed=7.71x    frame= 5532 fps=185 q=-0.0 size=N/A time=00:03:50.73 bitrate=N/A speed=7.71x    frame= 5627 fps=185 q=-0.0 size=N/A time=00:03:54.69 bitrate=N/A speed=7.71x    frame= 5718 fps=185 q=-0.0 size=N/A time=00:03:58.48 bitrate=N/A speed=7.71x    frame= 5825 fps=185 q=-0.0 size=N/A time=00:04:02.95 bitrate=N/A speed=7.72x    frame= 5922 fps=185 q=-0.0 size=N/A time=00:04:06.99 bitrate=N/A speed=7.72x    frame= 6012 fps=185 q=-0.0 size=N/A time=00:04:10.75 bitrate=N/A speed=7.72x    frame= 6114 fps=185 q=-0.0 size=N/A time=00:04:15.00 bitrate=N/A speed=7.73x    frame= 6208 fps=185 q=-0.0 size=N/A time=00:04:18.92 bitrate=N/A speed=7.72x    frame= 6301 fps=185 q=-0.0 size=N/A time=00:04:22.80 bitrate=N/A speed=7.72x    frame= 6391 fps=185 q=-0.0 size=N/A time=00:04:26.55 bitrate=N/A speed=7.71x    frame= 6492 fps=185 q=-0.0 size=N/A time=00:04:30.77 bitrate=N/A speed=7.72x    frame= 6585 fps=185 q=-0.0 size=N/A time=00:04:34.64 bitrate=N/A speed=7.72x    frame= 6685 fps=185 q=-0.0 size=N/A time=00:04:38.82 bitrate=N/A speed=7.72x    frame= 6779 fps=185 q=-0.0 size=N/A time=00:04:42.74 bitrate=N/A speed=7.72x    frame= 6882 fps=185 q=-0.0 size=N/A time=00:04:47.03 bitrate=N/A speed=7.73x    frame= 6977 fps=185 q=-0.0 size=N/A time=00:04:50.99 bitrate=N/A speed=7.73x    frame= 7071 fps=185 q=-0.0 size=N/A time=00:04:54.91 bitrate=N/A speed=7.73x    frame= 7172 fps=185 q=-0.0 size=N/A time=00:04:59.13 bitrate=N/A speed=7.73x    frame= 7265 fps=185 q=-0.0 size=N/A time=00:05:03.01 bitrate=N/A speed=7.73x    frame= 7356 fps=185 q=-0.0 size=N/A time=00:05:06.80 bitrate=N/A speed=7.73x    frame= 7452 fps=185 q=-0.0 size=N/A time=00:05:10.81 bitrate=N/A speed=7.73x    frame= 7547 fps=185 q=-0.0 size=N/A time=00:05:14.77 bitrate=N/A speed=7.72x    frame= 7640 fps=185 q=-0.0 size=N/A time=00:05:18.65 bitrate=N/A speed=7.72x    frame= 7742 fps=185 q=-0.0 size=N/A time=00:05:22.90 bitrate=N/A speed=7.73x    frame= 7830 fps=185 q=-0.0 size=N/A time=00:05:26.57 bitrate=N/A speed=7.72x    frame= 7935 fps=185 q=-0.0 size=N/A time=00:05:30.95 bitrate=N/A speed=7.73x    frame= 8029 fps=185 q=-0.0 size=N/A time=00:05:34.87 bitrate=N/A speed=7.73x    frame= 8118 fps=185 q=-0.0 size=N/A time=00:05:38.58 bitrate=N/A speed=7.72x    frame= 8218 fps=185 q=-0.0 size=N/A time=00:05:42.75 bitrate=N/A speed=7.73x    frame= 8312 fps=185 q=-0.0 size=N/A time=00:05:46.67 bitrate=N/A speed=7.73x    frame= 8411 fps=185 q=-0.0 size=N/A time=00:05:50.80 bitrate=N/A speed=7.73x    frame= 8500 fps=185 q=-0.0 size=N/A time=00:05:54.52 bitrate=N/A speed=7.72x    frame= 8604 fps=185 q=-0.0 size=N/A time=00:05:58.85 bitrate=N/A speed=7.73x    frame= 8698 fps=185 q=-0.0 size=N/A time=00:06:02.77 bitrate=N/A speed=7.73x    frame= 8791 fps=185 q=-0.0 size=N/A time=00:06:06.65 bitrate=N/A speed=7.73x    frame= 8891 fps=185 q=-0.0 size=N/A time=00:06:10.82 bitrate=N/A speed=7.73x    frame= 8986 fps=185 q=-0.0 size=N/A time=00:06:14.79 bitrate=N/A speed=7.73x    frame= 9082 fps=185 q=-0.0 size=N/A time=00:06:18.79 bitrate=N/A speed=7.73x    frame= 9175 fps=185 q=-0.0 size=N/A time=00:06:22.67 bitrate=N/A speed=7.73x    frame= 9269 fps=185 q=-0.0 size=N/A time=00:06:26.59 bitrate=N/A speed=7.73x    frame= 9360 fps=185 q=-0.0 size=N/A time=00:06:30.39 bitrate=N/A speed=7.72x    frame= 9456 fps=185 q=-0.0 size=N/A time=00:06:34.39 bitrate=N/A speed=7.72x    frame= 9553 fps=185 q=-0.0 size=N/A time=00:06:38.43 bitrate=N/A speed=7.73x    frame= 9643 fps=185 q=-0.0 size=N/A time=00:06:42.19 bitrate=N/A speed=7.72x    frame= 9747 fps=185 q=-0.0 size=N/A time=00:06:46.53 bitrate=N/A speed=7.73x    frame= 9841 fps=185 q=-0.0 size=N/A time=00:06:50.45 bitrate=N/A speed=7.73x    frame= 9938 fps=185 q=-0.0 size=N/A time=00:06:54.49 bitrate=N/A speed=7.73x    frame=10028 fps=185 q=-0.0 size=N/A time=00:06:58.25 bitrate=N/A speed=7.72x    frame=10133 fps=185 q=-0.0 size=N/A time=00:07:02.63 bitrate=N/A speed=7.73x    frame=10223 fps=185 q=-0.0 size=N/A time=00:07:06.38 bitrate=N/A speed=7.73x    frame=10314 fps=185 q=-0.0 size=N/A time=00:07:10.17 bitrate=N/A speed=7.72x    frame=10414 fps=185 q=-0.0 size=N/A time=00:07:14.35 bitrate=N/A speed=7.73x    frame=10509 fps=185 q=-0.0 size=N/A time=00:07:18.31 bitrate=N/A speed=7.73x    frame=10605 fps=185 q=-0.0 size=N/A time=00:07:22.31 bitrate=N/A speed=7.73x    frame=10695 fps=185 q=-0.0 size=N/A time=00:07:26.07 bitrate=N/A speed=7.72x    frame=10791 fps=185 q=-0.0 size=N/A time=00:07:30.07 bitrate=N/A speed=7.72x    frame=10889 fps=185 q=-0.0 size=N/A time=00:07:34.16 bitrate=N/A speed=7.72x    frame=10985 fps=185 q=-0.0 size=N/A time=00:07:38.16 bitrate=N/A speed=7.73x    frame=11076 fps=185 q=-0.0 size=N/A time=00:07:41.96 bitrate=N/A speed=7.72x    frame=11172 fps=185 q=-0.0 size=N/A time=00:07:45.96 bitrate=N/A speed=7.72x    frame=11267 fps=185 q=-0.0 size=N/A time=00:07:49.92 bitrate=N/A speed=7.72x    frame=11365 fps=185 q=-0.0 size=N/A time=00:07:54.01 bitrate=N/A speed=7.73x    frame=11465 fps=185 q=-0.0 size=N/A time=00:07:58.18 bitrate=N/A speed=7.73x    frame=11560 fps=185 q=-0.0 size=N/A time=00:08:02.14 bitrate=N/A speed=7.73x    frame=11655 fps=185 q=-0.0 size=N/A time=00:08:06.11 bitrate=N/A speed=7.73x    frame=11748 fps=185 q=-0.0 size=N/A time=00:08:09.98 bitrate=N/A speed=7.72x    frame=11851 fps=185 q=-0.0 size=N/A time=00:08:14.28 bitrate=N/A speed=7.73x    frame=11948 fps=185 q=-0.0 size=N/A time=00:08:18.33 bitrate=N/A speed=7.73x    frame=12032 fps=185 q=-0.0 size=N/A time=00:08:21.83 bitrate=N/A speed=7.72x    frame=12135 fps=185 q=-0.0 size=N/A time=00:08:26.13 bitrate=N/A speed=7.73x    frame=12230 fps=185 q=-0.0 size=N/A time=00:08:30.09 bitrate=N/A speed=7.73x    frame=12320 fps=185 q=-0.0 size=N/A time=00:08:33.84 bitrate=N/A speed=7.72x    frame=12426 fps=185 q=-0.0 size=N/A time=00:08:38.26 bitrate=N/A speed=7.73x    frame=12524 fps=185 q=-0.0 size=N/A time=00:08:42.35 bitrate=N/A speed=7.73x    frame=12617 fps=185 q=-0.0 size=N/A time=00:08:46.23 bitrate=N/A speed=7.73x    frame=12716 fps=185 q=-0.0 size=N/A time=00:08:50.36 bitrate=N/A speed=7.73x    frame=12815 fps=185 q=-0.0 size=N/A time=00:08:54.49 bitrate=N/A speed=7.73x    frame=12919 fps=186 q=-0.0 size=N/A time=00:08:58.82 bitrate=N/A speed=7.74x    frame=13026 fps=186 q=-0.0 size=N/A time=00:09:03.29 bitrate=N/A speed=7.75x    frame=13123 fps=186 q=-0.0 size=N/A time=00:09:07.33 bitrate=N/A speed=7.75x    frame=13220 fps=186 q=-0.0 size=N/A time=00:09:11.38 bitrate=N/A speed=7.75x    frame=13323 fps=186 q=-0.0 size=N/A time=00:09:15.68 bitrate=N/A speed=7.75x    frame=13422 fps=186 q=-0.0 size=N/A time=00:09:19.80 bitrate=N/A speed=7.75x    frame=13522 fps=186 q=-0.0 size=N/A time=00:09:23.98 bitrate=N/A speed=7.76x    frame=13619 fps=186 q=-0.0 size=N/A time=00:09:28.02 bitrate=N/A speed=7.76x    frame=13716 fps=186 q=-0.0 size=N/A time=00:09:32.07 bitrate=N/A speed=7.76x    frame=13817 fps=186 q=-0.0 size=N/A time=00:09:36.28 bitrate=N/A speed=7.76x    frame=13914 fps=186 q=-0.0 size=N/A time=00:09:40.32 bitrate=N/A speed=7.76x    frame=14008 fps=186 q=-0.0 size=N/A time=00:09:44.25 bitrate=N/A speed=7.76x    frame=14107 fps=186 q=-0.0 size=N/A time=00:09:48.37 bitrate=N/A speed=7.76x    frame=14206 fps=186 q=-0.0 size=N/A time=00:09:52.50 bitrate=N/A speed=7.76x    frame=14305 fps=186 q=-0.0 size=N/A time=00:09:56.63 bitrate=N/A speed=7.77x    frame=14406 fps=186 q=-0.0 size=N/A time=00:10:00.85 bitrate=N/A speed=7.77x    frame=14504 fps=186 q=-0.0 size=N/A time=00:10:04.93 bitrate=N/A speed=7.77x    frame=14604 fps=186 q=-0.0 size=N/A time=00:10:09.10 bitrate=N/A speed=7.77x    frame=14701 fps=186 q=-0.0 size=N/A time=00:10:13.15 bitrate=N/A speed=7.77x    frame=14803 fps=186 q=-0.0 size=N/A time=00:10:17.40 bitrate=N/A speed=7.77x    frame=14909 fps=187 q=-0.0 size=N/A time=00:10:21.82 bitrate=N/A speed=7.78x    frame=15009 fps=187 q=-0.0 size=N/A time=00:10:26.00 bitrate=N/A speed=7.78x    frame=15109 fps=187 q=-0.0 size=N/A time=00:10:30.17 bitrate=N/A speed=7.78x    frame=15205 fps=187 q=-0.0 size=N/A time=00:10:34.17 bitrate=N/A speed=7.78x    frame=15311 fps=187 q=-0.0 size=N/A time=00:10:38.59 bitrate=N/A speed=7.79x    frame=15408 fps=187 q=-0.0 size=N/A time=00:10:42.64 bitrate=N/A speed=7.79x    frame=15509 fps=187 q=-0.0 size=N/A time=00:10:46.85 bitrate=N/A speed=7.79x    frame=15608 fps=187 q=-0.0 size=N/A time=00:10:50.98 bitrate=N/A speed=7.79x    frame=15709 fps=187 q=-0.0 size=N/A time=00:10:55.19 bitrate=N/A speed=7.79x    frame=15807 fps=187 q=-0.0 size=N/A time=00:10:59.28 bitrate=N/A speed= 7.8x    frame=15909 fps=187 q=-0.0 size=N/A time=00:11:03.53 bitrate=N/A speed= 7.8x    frame=16008 fps=187 q=-0.0 size=N/A time=00:11:07.66 bitrate=N/A speed= 7.8x    frame=16109 fps=187 q=-0.0 size=N/A time=00:11:11.87 bitrate=N/A speed= 7.8x    frame=16206 fps=187 q=-0.0 size=N/A time=00:11:15.92 bitrate=N/A speed= 7.8x    frame=16303 fps=187 q=-0.0 size=N/A time=00:11:19.97 bitrate=N/A speed= 7.8x    frame=16408 fps=187 q=-0.0 size=N/A time=00:11:24.35 bitrate=N/A speed=7.81x    frame=16509 fps=187 q=-0.0 size=N/A time=00:11:28.56 bitrate=N/A speed=7.81x    frame=16611 fps=187 q=-0.0 size=N/A time=00:11:32.81 bitrate=N/A speed=7.81x    frame=16711 fps=187 q=-0.0 size=N/A time=00:11:36.98 bitrate=N/A speed=7.81x    frame=16801 fps=187 q=-0.0 size=N/A time=00:11:40.74 bitrate=N/A speed=7.81x    frame=16913 fps=187 q=-0.0 size=N/A time=00:11:45.41 bitrate=N/A speed=7.82x    frame=17008 fps=187 q=-0.0 size=N/A time=00:11:49.37 bitrate=N/A speed=7.82x    frame=17116 fps=188 q=-0.0 size=N/A time=00:11:53.87 bitrate=N/A speed=7.82x    frame=17212 fps=188 q=-0.0 size=N/A time=00:11:57.88 bitrate=N/A speed=7.82x    frame=17315 fps=188 q=-0.0 size=N/A time=00:12:02.17 bitrate=N/A speed=7.82x    frame=17414 fps=188 q=-0.0 size=N/A time=00:12:06.30 bitrate=N/A speed=7.82x    frame=17514 fps=188 q=-0.0 size=N/A time=00:12:10.47 bitrate=N/A speed=7.83x    frame=17616 fps=188 q=-0.0 size=N/A time=00:12:14.73 bitrate=N/A speed=7.83x    frame=17704 fps=188 q=-0.0 size=N/A time=00:12:18.40 bitrate=N/A speed=7.83x    frame=17816 fps=188 q=-0.0 size=N/A time=00:12:23.07 bitrate=N/A speed=7.83x    frame=17908 fps=188 q=-0.0 size=N/A time=00:12:26.91 bitrate=N/A speed=7.83x    frame=18017 fps=188 q=-0.0 size=N/A time=00:12:31.45 bitrate=N/A speed=7.83x    frame=18122 fps=188 q=-0.0 size=N/A time=00:12:35.83 bitrate=N/A speed=7.84x    frame=18220 fps=188 q=-0.0 size=N/A time=00:12:39.92 bitrate=N/A speed=7.84x    frame=18320 fps=188 q=-0.0 size=N/A time=00:12:44.09 bitrate=N/A speed=7.84x    frame=18418 fps=188 q=-0.0 size=N/A time=00:12:48.18 bitrate=N/A speed=7.84x    frame=18520 fps=188 q=-0.0 size=N/A time=00:12:52.43 bitrate=N/A speed=7.84x    frame=18619 fps=188 q=-0.0 size=N/A time=00:12:56.56 bitrate=N/A speed=7.84x    frame=18721 fps=188 q=-0.0 size=N/A time=00:13:00.82 bitrate=N/A speed=7.85x    frame=18820 fps=188 q=-0.0 size=N/A time=00:13:04.95 bitrate=N/A speed=7.85x    frame=18920 fps=188 q=-0.0 size=N/A time=00:13:09.12 bitrate=N/A speed=7.85x    frame=19020 fps=188 q=-0.0 size=N/A time=00:13:13.29 bitrate=N/A speed=7.85x    frame=19124 fps=188 q=-0.0 size=N/A time=00:13:17.63 bitrate=N/A speed=7.85x    frame=19224 fps=188 q=-0.0 size=N/A time=00:13:21.80 bitrate=N/A speed=7.85x    frame=19325 fps=188 q=-0.0 size=N/A time=00:13:26.01 bitrate=N/A speed=7.85x    frame=19425 fps=188 q=-0.0 size=N/A time=00:13:30.18 bitrate=N/A speed=7.86x    frame=19524 fps=188 q=-0.0 size=N/A time=00:13:34.31 bitrate=N/A speed=7.86x    frame=19617 fps=188 q=-0.0 size=N/A time=00:13:38.19 bitrate=N/A speed=7.86x    frame=19717 fps=188 q=-0.0 size=N/A time=00:13:42.36 bitrate=N/A speed=7.86x    frame=19828 fps=188 q=-0.0 size=N/A time=00:13:46.99 bitrate=N/A speed=7.86x    frame=19929 fps=189 q=-0.0 size=N/A time=00:13:51.20 bitrate=N/A speed=7.86x    frame=20031 fps=189 q=-0.0 size=N/A time=00:13:55.45 bitrate=N/A speed=7.86x    frame=20133 fps=189 q=-0.0 size=N/A time=00:13:59.71 bitrate=N/A speed=7.87x    frame=20235 fps=189 q=-0.0 size=N/A time=00:14:03.96 bitrate=N/A speed=7.87x    frame=20334 fps=189 q=-0.0 size=N/A time=00:14:08.09 bitrate=N/A speed=7.87x    frame=20428 fps=189 q=-0.0 size=N/A time=00:14:12.01 bitrate=N/A speed=7.87x    frame=20534 fps=189 q=-0.0 size=N/A time=00:14:16.43 bitrate=N/A speed=7.87x    frame=20638 fps=189 q=-0.0 size=N/A time=00:14:20.77 bitrate=N/A speed=7.87x    frame=20734 fps=189 q=-0.0 size=N/A time=00:14:24.78 bitrate=N/A speed=7.87x    frame=20838 fps=189 q=-0.0 size=N/A time=00:14:29.11 bitrate=N/A speed=7.87x    frame=20932 fps=189 q=-0.0 size=N/A time=00:14:33.03 bitrate=N/A speed=7.87x    frame=21035 fps=189 q=-0.0 size=N/A time=00:14:37.33 bitrate=N/A speed=7.88x    frame=21134 fps=189 q=-0.0 size=N/A time=00:14:41.46 bitrate=N/A speed=7.88x    frame=21243 fps=189 q=-0.0 size=N/A time=00:14:46.01 bitrate=N/A speed=7.88x    frame=21341 fps=189 q=-0.0 size=N/A time=00:14:50.09 bitrate=N/A speed=7.88x    frame=21446 fps=189 q=-0.0 size=N/A time=00:14:54.47 bitrate=N/A speed=7.88x    frame=21544 fps=189 q=-0.0 size=N/A time=00:14:58.56 bitrate=N/A speed=7.88x    frame=21645 fps=189 q=-0.0 size=N/A time=00:15:02.77 bitrate=N/A speed=7.89x    frame=21737 fps=189 q=-0.0 size=N/A time=00:15:06.61 bitrate=N/A speed=7.88x    frame=21848 fps=189 q=-0.0 size=N/A time=00:15:11.24 bitrate=N/A speed=7.89x    frame=21945 fps=189 q=-0.0 size=N/A time=00:15:15.28 bitrate=N/A speed=7.89x    frame=22054 fps=189 q=-0.0 size=N/A time=00:15:19.83 bitrate=N/A speed=7.89x    frame=22148 fps=189 q=-0.0 size=N/A time=00:15:23.75 bitrate=N/A speed=7.89x    frame=22254 fps=189 q=-0.0 size=N/A time=00:15:28.17 bitrate=N/A speed=7.89x    frame=22349 fps=189 q=-0.0 size=N/A time=00:15:32.13 bitrate=N/A speed=7.89x    frame=22450 fps=189 q=-0.0 size=N/A time=00:15:36.35 bitrate=N/A speed=7.89x    frame=22549 fps=189 q=-0.0 size=N/A time=00:15:40.48 bitrate=N/A speed=7.89x    frame=22646 fps=189 q=-0.0 size=N/A time=00:15:44.52 bitrate=N/A speed=7.89x    frame=22745 fps=189 q=-0.0 size=N/A time=00:15:48.65 bitrate=N/A speed=7.89x    frame=22848 fps=189 q=-0.0 size=N/A time=00:15:52.95 bitrate=N/A speed= 7.9x    frame=22950 fps=189 q=-0.0 size=N/A time=00:15:57.20 bitrate=N/A speed= 7.9x    frame=23048 fps=189 q=-0.0 size=N/A time=00:16:01.29 bitrate=N/A speed= 7.9x    frame=23150 fps=189 q=-0.0 size=N/A time=00:16:05.54 bitrate=N/A speed= 7.9x    frame=23254 fps=189 q=-0.0 size=N/A time=00:16:09.88 bitrate=N/A speed= 7.9x    frame=23354 fps=189 q=-0.0 size=N/A time=00:16:14.05 bitrate=N/A speed= 7.9x    frame=23457 fps=189 q=-0.0 size=N/A time=00:16:18.35 bitrate=N/A speed= 7.9x    frame=23552 fps=189 q=-0.0 size=N/A time=00:16:22.31 bitrate=N/A speed= 7.9x    frame=23653 fps=190 q=-0.0 size=N/A time=00:16:26.52 bitrate=N/A speed= 7.9x    frame=23753 fps=190 q=-0.0 size=N/A time=00:16:30.69 bitrate=N/A speed= 7.9x    frame=23853 fps=190 q=-0.0 size=N/A time=00:16:34.86 bitrate=N/A speed=7.91x    frame=23953 fps=190 q=-0.0 size=N/A time=00:16:39.03 bitrate=N/A speed=7.91x    frame=24047 fps=190 q=-0.0 size=N/A time=00:16:42.96 bitrate=N/A speed= 7.9x    frame=24149 fps=190 q=-0.0 size=N/A time=00:16:47.21 bitrate=N/A speed=7.91x    frame=24245 fps=190 q=-0.0 size=N/A time=00:16:51.21 bitrate=N/A speed=7.91x    frame=24347 fps=190 q=-0.0 size=N/A time=00:16:55.47 bitrate=N/A speed=7.91x    frame=24436 fps=190 q=-0.0 size=N/A time=00:16:59.18 bitrate=N/A speed= 7.9x    frame=24538 fps=190 q=-0.0 size=N/A time=00:17:03.43 bitrate=N/A speed=7.91x    frame=24634 fps=190 q=-0.0 size=N/A time=00:17:07.44 bitrate=N/A speed=7.91x    frame=24734 fps=190 q=-0.0 size=N/A time=00:17:11.61 bitrate=N/A speed=7.91x    frame=24826 fps=190 q=-0.0 size=N/A time=00:17:15.45 bitrate=N/A speed= 7.9x    frame=24936 fps=190 q=-0.0 size=N/A time=00:17:20.03 bitrate=N/A speed=7.91x    frame=25031 fps=190 q=-0.0 size=N/A time=00:17:24.00 bitrate=N/A speed=7.91x    frame=25137 fps=190 q=-0.0 size=N/A time=00:17:28.42 bitrate=N/A speed=7.91x    frame=25233 fps=190 q=-0.0 size=N/A time=00:17:32.42 bitrate=N/A speed=7.91x    frame=25334 fps=190 q=-0.0 size=N/A time=00:17:36.63 bitrate=N/A speed=7.91x    frame=25433 fps=190 q=-0.0 size=N/A time=00:17:40.76 bitrate=N/A speed=7.91x    frame=25532 fps=190 q=-0.0 size=N/A time=00:17:44.89 bitrate=N/A speed=7.91x    frame=25623 fps=190 q=-0.0 size=N/A time=00:17:48.69 bitrate=N/A speed=7.91x    frame=25728 fps=190 q=-0.0 size=N/A time=00:17:53.07 bitrate=N/A speed=7.91x    frame=25825 fps=190 q=-0.0 size=N/A time=00:17:57.11 bitrate=N/A speed=7.91x    frame=25922 fps=190 q=-0.0 size=N/A time=00:18:01.16 bitrate=N/A speed=7.91x    frame=26017 fps=190 q=-0.0 size=N/A time=00:18:05.12 bitrate=N/A speed=7.91x    frame=26119 fps=190 q=-0.0 size=N/A time=00:18:09.37 bitrate=N/A speed=7.91x    frame=26221 fps=190 q=-0.0 size=N/A time=00:18:13.63 bitrate=N/A speed=7.91x    frame=26322 fps=190 q=-0.0 size=N/A time=00:18:17.84 bitrate=N/A speed=7.91x    frame=26422 fps=190 q=-0.0 size=N/A time=00:18:22.01 bitrate=N/A speed=7.91x    frame=26524 fps=190 q=-0.0 size=N/A time=00:18:26.27 bitrate=N/A speed=7.91x    frame=26623 fps=190 q=-0.0 size=N/A time=00:18:30.40 bitrate=N/A speed=7.92x    frame=26728 fps=190 q=-0.0 size=N/A time=00:18:34.78 bitrate=N/A speed=7.92x    frame=26818 fps=190 q=-0.0 size=N/A time=00:18:38.53 bitrate=N/A speed=7.92x    frame=26927 fps=190 q=-0.0 size=N/A time=00:18:43.08 bitrate=N/A speed=7.92x    frame=27026 fps=190 q=-0.0 size=N/A time=00:18:47.20 bitrate=N/A speed=7.92x    frame=27129 fps=190 q=-0.0 size=N/A time=00:18:51.50 bitrate=N/A speed=7.92x    frame=27228 fps=190 q=-0.0 size=N/A time=00:18:55.63 bitrate=N/A speed=7.92x    frame=27331 fps=190 q=-0.0 size=N/A time=00:18:59.93 bitrate=N/A speed=7.92x    frame=27430 fps=190 q=-0.0 size=N/A time=00:19:04.05 bitrate=N/A speed=7.92x    frame=27525 fps=190 q=-0.0 size=N/A time=00:19:08.02 bitrate=N/A speed=7.92x    frame=27632 fps=190 q=-0.0 size=N/A time=00:19:12.48 bitrate=N/A speed=7.92x    frame=27730 fps=190 q=-0.0 size=N/A time=00:19:16.57 bitrate=N/A speed=7.92x    frame=27828 fps=190 q=-0.0 size=N/A time=00:19:20.65 bitrate=N/A speed=7.92x    frame=27923 fps=190 q=-0.0 size=N/A time=00:19:24.62 bitrate=N/A speed=7.92x    frame=28025 fps=190 q=-0.0 size=N/A time=00:19:28.87 bitrate=N/A speed=7.92x    frame=28120 fps=190 q=-0.0 size=N/A time=00:19:32.83 bitrate=N/A speed=7.92x    frame=28218 fps=190 q=-0.0 size=N/A time=00:19:36.92 bitrate=N/A speed=7.92x    frame=28316 fps=190 q=-0.0 size=N/A time=00:19:41.01 bitrate=N/A speed=7.92x    frame=28415 fps=190 q=-0.0 size=N/A time=00:19:45.14 bitrate=N/A speed=7.92x    frame=28505 fps=190 q=-0.0 size=N/A time=00:19:48.89 bitrate=N/A speed=7.92x    frame=28617 fps=190 q=-0.0 size=N/A time=00:19:53.56 bitrate=N/A speed=7.92x    frame=28716 fps=190 q=-0.0 size=N/A time=00:19:57.69 bitrate=N/A speed=7.92x    frame=28818 fps=190 q=-0.0 size=N/A time=00:20:01.95 bitrate=N/A speed=7.93x    frame=28917 fps=190 q=-0.0 size=N/A time=00:20:06.07 bitrate=N/A speed=7.93x    frame=29009 fps=190 q=-0.0 size=N/A time=00:20:09.91 bitrate=N/A speed=7.92x    frame=29122 fps=190 q=-0.0 size=N/A time=00:20:14.63 bitrate=N/A speed=7.93x    frame=29214 fps=190 q=-0.0 size=N/A time=00:20:18.46 bitrate=N/A speed=7.93x    frame=29322 fps=190 q=-0.0 size=N/A time=00:20:22.97 bitrate=N/A speed=7.93x    frame=29419 fps=190 q=-0.0 size=N/A time=00:20:27.01 bitrate=N/A speed=7.93x    frame=29512 fps=190 q=-0.0 size=N/A time=00:20:30.89 bitrate=N/A speed=7.93x    frame=29621 fps=190 q=-0.0 size=N/A time=00:20:35.44 bitrate=N/A speed=7.93x    frame=29717 fps=190 q=-0.0 size=N/A time=00:20:39.44 bitrate=N/A speed=7.93x    frame=29817 fps=190 q=-0.0 size=N/A time=00:20:43.61 bitrate=N/A speed=7.93x    frame=29927 fps=190 q=-0.0 size=N/A time=00:20:48.20 bitrate=N/A speed=7.93x    frame=30027 fps=190 q=-0.0 size=N/A time=00:20:52.37 bitrate=N/A speed=7.93x    frame=30130 fps=190 q=-0.0 size=N/A time=00:20:56.67 bitrate=N/A speed=7.94x    frame=30229 fps=190 q=-0.0 size=N/A time=00:21:00.80 bitrate=N/A speed=7.94x    frame=30319 fps=190 q=-0.0 size=N/A time=00:21:04.55 bitrate=N/A speed=7.93x    frame=30429 fps=190 q=-0.0 size=N/A time=00:21:09.14 bitrate=N/A speed=7.94x    frame=30529 fps=190 q=-0.0 size=N/A time=00:21:13.31 bitrate=N/A speed=7.94x    frame=30629 fps=190 q=-0.0 size=N/A time=00:21:17.48 bitrate=N/A speed=7.94x    frame=30726 fps=190 q=-0.0 size=N/A time=00:21:21.53 bitrate=N/A speed=7.94x    frame=30827 fps=190 q=-0.0 size=N/A time=00:21:25.74 bitrate=N/A speed=7.94x    frame=30924 fps=190 q=-0.0 size=N/A time=00:21:29.78 bitrate=N/A speed=7.94x    frame=31031 fps=190 q=-0.0 size=N/A time=00:21:34.25 bitrate=N/A speed=7.94x    frame=31133 fps=190 q=-0.0 size=N/A time=00:21:38.50 bitrate=N/A speed=7.94x    frame=31222 fps=190 q=-0.0 size=N/A time=00:21:42.21 bitrate=N/A speed=7.94x    frame=31333 fps=190 q=-0.0 size=N/A time=00:21:46.84 bitrate=N/A speed=7.94x    frame=31433 fps=190 q=-0.0 size=N/A time=00:21:51.01 bitrate=N/A speed=7.94x    frame=31528 fps=190 q=-0.0 size=N/A time=00:21:54.98 bitrate=N/A speed=7.94x    frame=31631 fps=190 q=-0.0 size=N/A time=00:21:59.27 bitrate=N/A speed=7.94x    frame=31729 fps=190 q=-0.0 size=N/A time=00:22:03.36 bitrate=N/A speed=7.94x    frame=31834 fps=190 q=-0.0 size=N/A time=00:22:07.74 bitrate=N/A speed=7.95x    frame=31935 fps=191 q=-0.0 size=N/A time=00:22:11.95 bitrate=N/A speed=7.95x    frame=32034 fps=191 q=-0.0 size=N/A time=00:22:16.08 bitrate=N/A speed=7.95x    frame=32132 fps=191 q=-0.0 size=N/A time=00:22:20.17 bitrate=N/A speed=7.95x    frame=32226 fps=190 q=-0.0 size=N/A time=00:22:24.09 bitrate=N/A speed=7.95x    frame=32319 fps=190 q=-0.0 size=N/A time=00:22:27.97 bitrate=N/A speed=7.94x    frame=32415 fps=190 q=-0.0 size=N/A time=00:22:31.97 bitrate=N/A speed=7.94x    frame=32516 fps=190 q=-0.0 size=N/A time=00:22:36.18 bitrate=N/A speed=7.94x    frame=32614 fps=190 q=-0.0 size=N/A time=00:22:40.27 bitrate=N/A speed=7.94x    frame=32713 fps=190 q=-0.0 size=N/A time=00:22:44.40 bitrate=N/A speed=7.94x    frame=32811 fps=190 q=-0.0 size=N/A time=00:22:48.49 bitrate=N/A speed=7.94x    frame=32901 fps=190 q=-0.0 size=N/A time=00:22:52.24 bitrate=N/A speed=7.94x    frame=33004 fps=190 q=-0.0 size=N/A time=00:22:56.54 bitrate=N/A speed=7.94x    frame=33103 fps=190 q=-0.0 size=N/A time=00:23:00.67 bitrate=N/A speed=7.94x    frame=33199 fps=190 q=-0.0 size=N/A time=00:23:04.67 bitrate=N/A speed=7.94x    frame=33299 fps=190 q=-0.0 size=N/A time=00:23:08.84 bitrate=N/A speed=7.94x    frame=33396 fps=190 q=-0.0 size=N/A time=00:23:12.89 bitrate=N/A speed=7.94x    frame=33490 fps=190 q=-0.0 size=N/A time=00:23:16.81 bitrate=N/A speed=7.94x    frame=33592 fps=190 q=-0.0 size=N/A time=00:23:21.06 bitrate=N/A speed=7.94x    frame=33688 fps=190 q=-0.0 size=N/A time=00:23:25.07 bitrate=N/A speed=7.94x    frame=33789 fps=190 q=-0.0 size=N/A time=00:23:29.28 bitrate=N/A speed=7.94x    frame=33883 fps=190 q=-0.0 size=N/A time=00:23:33.20 bitrate=N/A speed=7.94x    frame=33980 fps=190 q=-0.0 size=N/A time=00:23:37.24 bitrate=N/A speed=7.94x    [Parsed_ssim_10 @ 000001736c4bdc80] SSIM Y:0.990941 (20.429283) U:0.992149 (21.050764) V:0.993412 (21.812165) All:0.991554 (20.733599)
[out#0/null @ 00000173680c8cc0] video:14630KiB audio:266480KiB subtitle:0KiB other streams:0KiB global headers:0KiB muxing overhead: unknown
frame=34048 fps=190 q=-0.0 Lsize=N/A time=00:23:40.08 bitrate=N/A speed=7.94x    
